# xmcd CD database file
#
# Track frame offsets:
#	183
#	7008
#	21875
#	36650
#	70575
#	81658
#	85658
#	120163
#	140170
#	157648
#	165620
#	175048
#	192195
#	213995
#
# Disc length: 2905 seconds
#
# Revision: 1
# Processed by: cddbd v1.5PL3 Copyright (c) Steve Scherf et al.
# Submitted via: CDex 1.50
#
DISCID=b10b570e
DTITLE=Bobbo's Blues Band - Traintime
DYEAR=1991
DGENRE=Blues
TTITLE0=Traintime  Blues
TTITLE1=Slow Train
TTITLE2=Bad Job
TTITLE3=Rabbit On A Log
TTITLE4=Doggone On My Soul
TTITLE5=Cotton Fields
TTITLE6=Joint The C.I.O.
TTITLE7=Night Lights Blues
TTITLE8=Crossroads Blues
TTITLE9=Jesus Christ
TTITLE10=Trad Blues
TTITLE11=Children's Sing Song - Baby Crying
TTITLE12=Driver Man
TTITLE13=Traintime Blues
EXTD=YEAR: 1991
EXTT0=
EXTT1=
EXTT2=
EXTT3=
EXTT4=
EXTT5=
EXTT6=
EXTT7=
EXTT8=
EXTT9=
EXTT10=
EXTT11=
EXTT12=
EXTT13=
PLAYORDER=
